#!OML:ASF \\Waltz\H\Terrain\Patient Classification 1\Animal1\Tuesday\Animal1.ASF
:FULLY-SPECIFIED
:DEGREES
3265
root 13.1265 15.0789 2.31341 27.2125 19.6742 -10.811
lowerback 31.6308 -3.06022 1.94267
upperback -3.70869 -2.31716 4.49434
thorax -21.2322 -0.785388 5.18716
lowerneck -7.21615 8.65782 -1.3193
upperneck -24.6928 11.9412 -2.01759
head -6.3651 6.21281 -0.823405
rclavicle -4.21423e-014 3.97569e-015
rhumerus -72.8642 25.7848 -101.948
rradius 38.2658
rwrist -8.5711
rhand -11.6933 26.9638
rfingers 7.12502
rthumb 14.3526 357.48
lclavicle -4.21423e-014 3.97569e-015
lhumerus -70.3814 -14.5715 91.7227
lradius 41.3182
lwrist -24.6991
lhand -9.80688 -324.292
lfingers 7.12502
lthumb 16.1696 1145.05
rfemur -69.2215 21.2081 20.0573
rtibia 55.9416
rfoot -16.6556 -9.20837
rtoes -4.83011
lfemur -65.4707 2.82789 15.8214
ltibia 49.3395
lfoot -16.1226 11.982
ltoes -20.8455
3266
root 13.1226 15.0772 2.31136 27.206 19.6689 -10.7853
lowerback 31.6182 -3.014 1.96585
upperback -3.68443 -2.25797 4.44625
thorax -21.1994 -0.76951 5.08797
lowerneck -7.21399 9.84217 -0.916387
upperneck -24.4582 13.2638 -3.74247
head -6.13957 6.9537 -1.4436
rclavicle -2.46493e-014 2.46493e-014
rhumerus -73.0147 25.9236 -102.388
rradius 38.2945
rwrist -8.78613
rhand -11.4978 26.4963
rfingers 7.12502
rthumb 14.5409 357.026
lclavicle -2.46493e-014 2.46493e-014
lhumerus -70.2324 -14.6579 91.6812
lradius 41.0569
lwrist -24.7559
lhand -10.0928 -324.769
lfingers 7.12502
lthumb 15.8943 1144.6
rfemur -69.2637 21.2231 20.0187
rtibia 55.975
rfoot -16.7052 -9.11592
rtoes -4.56682
lfemur -65.4767 2.85803 15.7322
ltibia 49.2558
lfoot -15.7654 12.476
ltoes -22.0974
3267
root 13.1187 15.078 2.31013 27.1862 19.6851 -10.7834
lowerback 31.5343 -2.98144 2.00092
upperback -3.62238 -2.22207 4.376
thorax -21.0798 -0.769194 4.96056
lowerneck -6.75201 10.8778 -0.427171
upperneck -24.7493 14.3982 -5.41947
head -6.126 7.59418 -2.09136
rclavicle 3.57812e-014 -7.95139e-015
rhumerus -72.9493 25.9602 -102.661
rradius 38.164
rwrist -8.83148
rhand -12.7086 26.0268
rfingers 7.12502
rthumb 13.3741 356.476
lclavicle 3.57812e-014 -7.95139e-015
lhumerus -70.0606 -14.7149 91.5136
lradius 40.8166
lwrist -24.8108
lhand -10.3337 -324.974
lfingers 7.12502
lthumb 15.6623 1144.41
rfemur -69.2799 21.2454 20.0169
rtibia 55.9994
rfoot -16.6662 -9.13762
rtoes -4.56342
lfemur -65.4791 2.90934 15.6369
ltibia 49.1766
lfoot -15.473 12.946
ltoes -23.8144
3268
root 13.1126 15.0809 2.30958 27.208 19.6861 -10.6806
lowerback 31.3399 -2.93434 1.92558
upperback -3.46329 -2.22671 4.27138
thorax -20.7726 -0.781216 4.86009
lowerneck -6.29315 11.8319 0.13489
upperneck -25.214 15.4395 -7.01481
head -6.14296 8.18467 -2.72326
rclavicle 5.725e-014 -2.54444e-014
rhumerus -72.6172 25.9683 -102.71
rradius 38.079
rwrist -8.66954
rhand -12.0249 25.9346
rfingers 7.12502
rthumb 14.033 356.428
lclavicle 5.725e-014 -2.54444e-014
lhumerus -69.6981 -14.8709 91.3275
lradius 40.6028
lwrist -24.7688
lhand -10.23 -325.016
lfingers 7.12502
lthumb 15.7621 1144.36
rfemur -69.309 21.2373 19.9113
rtibia 56.0086
rfoot -16.6114 -9.11055
rtoes -3.87945
lfemur -65.4559 2.86575 15.5364
ltibia 49.1186
lfoot -15.6401 12.8428
ltoes -22.9242
3269
root 13.1062 15.0849 2.31019 27.1609 19.6957 -10.5895
lowerback 31.3293 -2.85163 1.88912
upperback -3.42038 -2.1486 4.19653
thorax -20.7163 -0.753109 4.7538
lowerneck -6.32575 12.7244 0.495128
upperneck -24.8129 16.4525 -8.28148
head -5.82482 8.74754 -3.13107
rclavicle 4.85035e-014 -3.89618e-014
rhumerus -72.548 25.7742 -102.609
rradius 38.1093
rwrist -8.34182
rhand -11.2375 25.604
rfingers 7.12502
rthumb 14.7917 356.152
lclavicle 4.85035e-014 -3.89618e-014
lhumerus -69.6839 -15.2268 91.5089
lradius 40.5159
lwrist -24.6123
lhand -9.94842 -325.031
lfingers 7.12502
lthumb 16.0333 1144.33
rfemur -69.2206 21.2524 19.8479
rtibia 55.9884
rfoot -16.5185 -9.134
rtoes -3.3618
lfemur -65.3694 2.78353 15.4497
ltibia 49.0859
lfoot -15.7972 12.8353
ltoes -22.5078
3270
root 13.0999 15.0891 2.31195 27.0392 19.7064 -10.6267
lowerback 31.4575 -2.7727 1.91914
upperback -3.45271 -2.02988 4.16926
thorax -20.8315 -0.706909 4.65968
lowerneck -6.20948 13.4783 0.790995
upperneck -24.3325 17.3112 -9.35808
head -5.51987 9.22271 -3.46327
rclavicle -3.18055e-015 3.97569e-014
rhumerus -72.7234 25.6113 -102.63
rradius 38.1869
rwrist -8.1146
rhand -10.0746 25.3554
rfingers 7.12502
rthumb 15.9118 355.989
lclavicle -3.18055e-015 3.97569e-014
lhumerus -69.942 -15.5517 91.8396
lradius 40.6413
lwrist -24.2946
lhand -9.95515 -324.768
lfingers 7.12502
lthumb 16.0268 1144.59
rfemur -69.0269 21.324 19.9495
rtibia 55.9317
rfoot -16.296 -9.44601
rtoes -4.57564
lfemur -65.2302 2.76343 15.4896
ltibia 49.0701
lfoot -16.1569 12.6928
ltoes -20.6903
3271
root 13.0956 15.0962 2.31143 27.0099 19.6815 -10.5491
lowerback 31.509 -2.73155 1.83588
upperback -3.43947 -2.02011 4.1029
thorax -20.8392 -0.698366 4.62612
lowerneck -5.56369 14.2104 1.31193
upperneck -24.6424 18.1099 -10.6214
head -5.49937 9.67967 -3.96176
rclavicle 8.74653e-015 3.81667e-014
rhumerus -72.7407 25.5783 -102.696
rradius 38.2581
rwrist -8.04539
rhand -3.16049 24.9354
rfingers 7.12502
rthumb 22.5599 356.234
lclavicle 8.74653e-015 3.81667e-014
lhumerus -69.9564 -15.6099 91.8763
lradius 40.6862
lwrist -24.0138
lhand -10.1647 -324.317
lfingers 7.12502
lthumb 15.825 1145.06
rfemur -68.9572 21.3545 19.8693
rtibia 55.886
rfoot -16.2535 -9.46012
rtoes -4.54984
lfemur -65.1442 2.66014 15.4757
ltibia 49.0548
lfoot -16.714 12.234
ltoes -16.1488
3272
root 13.0923 15.1026 2.30848 27.0724 19.6645 -10.3949
lowerback 31.5081 -2.71691 1.69627
upperback -3.42695 -2.07323 4.02411
thorax -20.8163 -0.710725 4.63617
lowerneck -5.20359 14.5794 1.12533
upperneck -25.1077 18.5796 -10.8915
head -5.672 9.9595 -4.07851
rclavicle -1.11319e-014 1.51076e-014
rhumerus -72.6286 25.5761 -102.671
rradius 38.2909
rwrist -7.96882
rhand -1.08814 21.7328
rfingers 7.12502
rthumb 24.5477 353.286
lclavicle -1.11319e-014 1.51076e-014
lhumerus -69.8562 -15.5443 91.746
lradius 40.6384
lwrist -24.0263
lhand -10.0523 -323.923
lfingers 7.12502
lthumb 15.9333 1145.44
rfemur -69.0093 21.3359 19.6585
rtibia 55.8638
rfoot -16.3901 -9.16489
rtoes -2.92044
lfemur -65.1501 2.53631 15.3832
ltibia 49.0251
lfoot -16.9517 12.0429
ltoes -13.8734
3273
root 13.0874 15.1004 2.30957 27.0246 19.7609 -10.4726
lowerback 31.5207 -2.73152 1.72207
upperback -3.4277 -2.08409 4.01328
thorax -20.8237 -0.718703 4.61509
lowerneck -5.70828 15.0358 1.10582
upperneck -24.3782 19.2049 -11.0064
head -5.31728 10.2644 -4.00811
rclavicle -3.33958e-014 5.88403e-014
rhumerus -72.6139 25.5784 -102.679
rradius 38.3294
rwrist -7.88826
rhand -12.6146 25.2756
rfingers 7.12502
rthumb 13.4646 355.731
lclavicle -3.33958e-014 5.88403e-014
lhumerus -69.9073 -15.49 91.6128
lradius 40.6862
lwrist -24.1948
lhand -10.0164 -323.859
lfingers 7.12502
lthumb 15.9679 1145.5
rfemur -68.9764 21.3368 19.7668
rtibia 55.8488
rfoot -16.3336 -9.14973
rtoes -2.10455
lfemur -65.114 2.55918 15.4627
ltibia 49.0079
lfoot -17.363 11.8841
ltoes -11.9174
3274
root 13.0831 15.0987 2.31166 26.9194 19.8672 -10.5663
lowerback 31.5637 -2.72113 1.79785
upperback -3.40142 -2.04079 4.00357
thorax -20.8155 -0.710893 4.54189
lowerneck -4.06534 15.2151 1.74044
upperneck -25.8072 19.2194 -12.2908
head -5.81621 10.36 -4.69792
rclavicle 4.77083e-015 -1.59028e-015
rhumerus -72.6242 25.5282 -102.648
rradius 38.4769
rwrist -7.86893
rhand -1.54353 27.0678
rfingers 7.12502
rthumb 24.1111 358.563
lclavicle 4.77083e-015 -1.59028e-015
lhumerus -69.9276 -15.5509 91.6229
lradius 40.6895
lwrist -24.1758
lhand -10.1201 -324.03
lfingers 7.12502
lthumb 15.868 1145.34
rfemur -68.8595 21.3336 19.9429
rtibia 55.8271
rfoot -16.1157 -9.32758
rtoes -2.36087
lfemur -65.0223 2.56211 15.5417
ltibia 49.0086
lfoot -17.6858 11.8887
ltoes -10.5962
3275
root 13.0781 15.097 2.30838 26.8593 19.9346 -10.6566
lowerback 31.6113 -2.67757 1.86423
upperback -3.33956 -1.95082 4.02702
thorax -20.7651 -0.681739 4.48795
lowerneck -1.91398 15.2608 2.41137
upperneck -28.0341 18.9446 -14.0436
head -6.62581 10.3805 -5.66699
rclavicle -1.19271e-014 -7.95139e-015
rhumerus -72.5156 25.5448 -102.519
rradius 38.6408
rwrist -8.05881
rhand -11.9294 25.0932
rfingers 7.12502
rthumb 14.1251 355.593
lclavicle -1.19271e-014 -7.95139e-015
lhumerus -69.7428 -15.6173 91.7376
lradius 40.5791
lwrist -24.1489
lhand -10.0638 -324.284
lfingers 7.12502
lthumb 15.9222 1145.08
rfemur -68.7952 21.3599 20.0716
rtibia 55.7854
rfoot -16.0288 -9.47639
rtoes -3.31395
lfemur -65.0369 2.59293 15.6295
ltibia 49.0323
lfoot -17.3544 12.1159
ltoes -12.0912
3276
root 13.0725 15.0888 2.30369 26.806 20.0857 -10.9558
lowerback 31.6078 -2.66305 2.08942
upperback -3.31158 -1.82449 4.11412
thorax -20.7386 -0.650291 4.40282
lowerneck -1.6629 15.3947 2.48019
upperneck -28.2155 19.0441 -14.4972
head -6.65612 10.4742 -5.8456
rclavicle -2.8625e-014 6.2816e-014
rhumerus -72.4338 25.5312 -102.401
rradius 38.7485
rwrist -8.40387
rhand -7.21888 25.3712
rfingers 7.12502
rthumb 18.6603 356.246
lclavicle -2.8625e-014 6.2816e-014
lhumerus -69.5464 -15.5611 91.7213
lradius 40.4156
lwrist -24.3717
lhand -9.82804 -324.45
lfingers 7.12502
lthumb 16.1492 1144.9
rfemur -68.8475 21.443 20.3502
rtibia 55.7295
rfoot -16.064 -9.50022
rtoes -3.73933
lfemur -65.171 2.73182 15.9547
ltibia 49.0636
lfoot -16.986 12.2441
ltoes -13.698
3277
root 13.0686 15.087 2.30376 26.785 20.2628 -11.1805
lowerback 31.5245 -2.66461 2.31571
upperback -3.30099 -1.73579 4.14142
thorax -20.6927 -0.639315 4.26337
lowerneck -3.4721 15.6141 1.91899
upperneck -26.1631 19.5613 -13.4941
head -5.83962 10.6326 -5.13671
rclavicle 6.44062e-014 -4.69132e-014
rhumerus -72.5152 25.5462 -102.558
rradius 38.8516
rwrist -8.90087
rhand -6.07636 25.3981
rfingers 7.12502
rthumb 19.7589 356.382
lclavicle 6.44062e-014 -4.69132e-014
lhumerus -69.5109 -15.6337 91.7722
lradius 40.3645
lwrist -24.4595
lhand -9.70324 -324.131
lfingers 7.12502
lthumb 16.2694 1145.21
rfemur -68.879 21.4555 20.5776
rtibia 55.6618
rfoot -16.0823 -9.44899
rtoes -3.48883
lfemur -65.2913 2.78239 16.2259
ltibia 49.0658
lfoot -16.8341 12.4829
ltoes -15.0528
